# xmcd CD database file
# 
# Track frame offsets:
# 	150
# 	12364
# 	23756
# 	35073
# 	45955
# 	58057
# 	72144
# 	83616
# 	93713
# 	105130
# 	117717
# 	129829
# 	141476
# 	152978
# 	165960
# 	178402
# 	191629
# 	202286
# 	215258
# 	226550
# 	239322
# 
# Disc length: 3355 seconds
# 
# Submitted via: Nero 5.5.3.2
# 
# Revision: 0
# Processed by: cddbd v1.4PL0 Copyright (c) Steve Scherf et al.
#
DISCID=1e0d1915
DTITLE=Muddy Waters - The Blues...
DYEAR=1900
DGENRE=
TTITLE0=Burying Ground Blues
TTITLE1=Gypsy Woman
TTITLE2=Little Anna Mae
TTITLE3=Muddy Jump One
TTITLE4=I Can't Be Satisfied
TTITLE5=I Feel Like Going Home
TTITLE6=Sittin'Here And Drinkin'Whiskey Blues
TTITLE7=Mean Red Spider (2)
TTITLE8=Hard Days
TTITLE9=Come To Me Baby
TTITLE10=Good Lookin' Woman
TTITLE11=Kind Hearted Woman
TTITLE12=You're Gonne Miss Me
TTITLE13=You Can't Make The Grade
TTITLE14=Train Fare Home Blues
TTITLE15=Down South Blues
TTITLE16=Mean Red Spider (1)
TTITLE17=I'm Gonna Cut Your Head
TTITLE18=Atomic Bomb Blues
TTITLE19=Jitterbug Blues
TTITLE20=Hard Day Blues
EXTD=
EXTT0=
EXTT1=
EXTT2=
EXTT3=
EXTT4=
EXTT5=
EXTT6=
EXTT7=
EXTT8=
EXTT9=
EXTT10=
EXTT11=
EXTT12=
EXTT13=
EXTT14=
EXTT15=
EXTT16=
EXTT17=
EXTT18=
EXTT19=
EXTT20=
PLAYORDER=
